<?xml version="1.0" encoding="UTF-8"?>
<!DOCTYPE svg PUBLIC "-//W3C//DTD SVG 1.1//EN" "http://www.w3.org/Graphics/SVG/1.1/DTD/svg11.dtd">
<svg version="1.1" xmlns="http://www.w3.org/2000/svg" xmlns:xlink="http://www.w3.org/1999/xlink" x="0" y="0" width="335" height="254" viewBox="0, 0, 335, 254">
  <defs>
    <radialGradient id="Gradient_1" gradientUnits="userSpaceOnUse" cx="167.5" cy="200.91" r="53.089">
      <stop offset="0.111" stop-color="#000000" stop-opacity="0.725"/>
      <stop offset="1" stop-color="#000000" stop-opacity="0"/>
    </radialGradient>
    <radialGradient id="Gradient_2" gradientUnits="userSpaceOnUse" cx="164.539" cy="158.361" r="53.682">
      <stop offset="0.254" stop-color="#DFDFDF"/>
      <stop offset="0.899" stop-color="#A1A1A1"/>
      <stop offset="1" stop-color="#999999"/>
    </radialGradient>
  </defs>
  <g id="Layer_1">
    <g>
      <path d="M167.5,254 C75.019,254 0.048,230.231 0.048,200.91 C0.048,171.59 75.019,147.821 167.5,147.821 C259.981,147.821 334.952,171.59 334.952,200.91 C334.952,230.231 259.981,254 167.5,254 z" fill="url(#Gradient_1)"/>
      <g>
        <path d="M136.254,165.587 C136.254,165.587 89.268,125.512 85.15,92.439 C83.457,78.849 70.77,73.485 68.003,75.031 C68.003,75.031 77.472,84.916 75.921,89.682 C69.676,108.865 99.524,162.031 147.013,211.933" fill="#999999"/>
        <path d="M165.339,156.138 C144.195,156.138 127.054,138.997 127.054,117.853 C127.054,96.709 144.195,79.569 165.339,79.569 C186.483,79.569 203.623,96.709 203.623,117.853 C203.623,138.997 186.483,156.138 165.339,156.138 z" fill="#999999"/>
        <path d="M164.539,225.255 C134.891,225.255 110.857,195.306 110.857,158.361 C110.857,121.416 134.891,91.467 164.539,91.467 C194.187,91.467 218.221,121.416 218.221,158.361 C218.221,195.306 194.187,225.255 164.539,225.255 z" fill="url(#Gradient_2)"/>
        <g>
          <path d="M223.597,36.83 Q220.996,24.823 218.742,14.247 Q218.005,2.023 215.838,0.55 Q214.191,-0.664 210.897,4.928 Q208.36,8.045 202.021,15.652 Q198.217,21.569 196.527,20.724 Q192.723,19.033 188.497,18.611 L169.902,16.92 Q153.088,17.473 150.877,19.033 Q139.581,21.006 138.628,21.569 Q136.514,22.414 128.907,11.849 Q120.305,2.154 120.219,2.11 Q119.005,2.067 119.005,2.284 Q119.005,2.414 119.222,2.5 Q117.965,5.968 113.543,30.111 Q109.035,54.731 108.775,60.279 Q108.125,73.76 114.107,84.076 Q123.166,99.81 145.532,102.541 L179.471,104.448 Q204.958,104.535 216.401,85.55 Q223.64,73.716 224.464,56.508 Q224.984,45.109 223.597,36.83 z" fill="#999999"/>
          <g>
            <path d="M126.113,25.04 Q126.113,24.823 124.813,22.483 Q123.426,20.012 123.123,18.712 Q123.123,16.891 122.602,15.418 Q121.909,13.424 120.565,13.814 Q120.565,15.027 119.482,19.925 Q118.398,24.78 118.398,26.514 L118.441,28.118 L119.265,28.248 Q119.742,28.248 120.435,27.684 Q121.259,27.077 122.559,26.947 Q124.596,26.774 125.507,25.994 Q126.113,25.56 126.113,25.04 M210.506,16.371 Q209.553,18.885 209.293,19.232 Q208.252,20.576 207.386,21.746 Q205.695,24.087 205.695,24.78 L205.695,25.257 Q205.825,25.864 206.302,25.864 Q206.562,25.864 206.692,25.604 Q206.822,25.3 207.386,25.3 Q207.819,25.3 210.116,25.907 Q212.414,26.514 213.627,26.514 Q214.971,26.514 215.274,26.384 Q215.491,26.297 215.491,25.82 Q215.491,25.43 214.668,23.133 Q213.757,20.532 213.671,20.272 Q213.584,19.969 213.367,17.151 Q213.15,15.244 212.457,14.594 Q211.157,14.551 210.506,16.371 z" fill="#666666"/>
            <path d="M148.893,79.462 L98.396,84.663 M148.026,76.644 L99.263,73.393 M180.968,80.198 L231.682,85.617 M180.101,76.948 L229.515,73.913" fill-opacity="0" stroke="#666666" stroke-width="2" stroke-linecap="round" stroke-linejoin="round" id="Layer5_0_1_STROKES"/>
          </g>
          <g>
            <path d="M170.716,74.367 Q170.716,72.633 164.517,72.33 Q158.232,72.026 158.232,74.454 Q158.232,74.844 160.703,76.534 Q163.52,78.485 165.601,78.485 Q166.901,78.485 168.852,76.794 Q170.716,75.19 170.716,74.367 z" fill="#FF9999"/>
            <path d="M153.444,85.053 Q153.487,85.096 154.744,86.007 Q156.218,86.96 157.692,87.264 Q162.286,88.131 165.147,81.976 Q165.191,82.019 165.971,83.579 Q167.011,85.4 168.138,86.397 Q171.779,89.691 177.067,85.053" fill-opacity="0" stroke="#666666" stroke-width="3" stroke-linecap="round" stroke-linejoin="round" id="Layer3_0_1_STROKES"/>
          </g>
          <g id="cat_eye_blink_0_Layer0_0_FILL">
            <path d="M151.384,64.311 Q154.505,61.19 154.505,56.812 Q154.505,52.348 151.384,49.27 Q148.306,46.193 143.928,46.193 Q139.551,46.193 136.386,49.27 Q133.309,52.348 133.309,56.812 Q133.309,61.19 136.386,64.311 Q139.551,67.388 143.928,67.388 Q148.306,67.388 151.384,64.311 M143.582,47.493 Q147.353,47.493 150.083,50.224 Q152.858,53.041 152.858,56.899 Q152.858,60.8 150.083,63.487 Q147.353,66.261 143.582,66.261 Q139.637,66.261 136.95,63.487 Q134.219,60.8 134.219,56.899 Q134.219,53.041 136.95,50.224 Q139.637,47.493 143.582,47.493 z" fill="#CCFFCC"/>
            <path d="M150.083,50.224 Q147.353,47.493 143.582,47.493 Q139.637,47.493 136.95,50.224 Q134.219,53.041 134.219,56.899 Q134.219,60.8 136.95,63.487 Q139.637,66.261 143.582,66.261 Q147.353,66.261 150.083,63.487 Q152.858,60.8 152.858,56.899 Q152.858,53.041 150.083,50.224 M142.411,51.697 Q143.235,52.521 143.235,53.821 Q143.235,55.078 142.411,55.945 Q141.501,56.812 140.287,56.812 Q138.987,56.812 138.12,55.945 Q137.297,55.078 137.297,53.821 Q137.297,52.521 138.12,51.697 Q138.987,50.83 140.287,50.83 Q141.501,50.83 142.411,51.697 M144.579,58.156 Q144.579,58.546 144.232,58.763 Q143.972,59.109 143.582,59.109 Q143.192,59.109 142.845,58.763 Q142.585,58.546 142.585,58.156 Q142.585,57.766 142.845,57.419 Q143.192,57.115 143.582,57.115 Q143.972,57.115 144.232,57.419 Q144.579,57.766 144.579,58.156 z" fill="#000000"/>
            <path d="M144.232,58.763 Q144.579,58.546 144.579,58.156 Q144.579,57.766 144.232,57.419 Q143.972,57.115 143.582,57.115 Q143.192,57.115 142.845,57.419 Q142.585,57.766 142.585,58.156 Q142.585,58.546 142.845,58.763 Q143.192,59.109 143.582,59.109 Q143.972,59.109 144.232,58.763 M143.235,53.821 Q143.235,52.521 142.411,51.697 Q141.501,50.83 140.287,50.83 Q138.987,50.83 138.12,51.697 Q137.297,52.521 137.297,53.821 Q137.297,55.078 138.12,55.945 Q138.987,56.812 140.287,56.812 Q141.501,56.812 142.411,55.945 Q143.235,55.078 143.235,53.821 z" fill="#EBEBEB"/>
          </g>
          <g id="cat_eye_blink_0_Layer0_0_FILL">
            <path d="M195.162,65.005 Q198.283,61.884 198.283,57.506 Q198.283,53.041 195.162,49.964 Q192.085,46.886 187.707,46.886 Q183.329,46.886 180.165,49.964 Q177.087,53.041 177.087,57.506 Q177.087,61.884 180.165,65.005 Q183.329,68.082 187.707,68.082 Q192.085,68.082 195.162,65.005 M187.36,48.187 Q191.131,48.187 193.862,50.917 Q196.636,53.735 196.636,57.592 Q196.636,61.494 193.862,64.181 Q191.131,66.955 187.36,66.955 Q183.416,66.955 180.728,64.181 Q177.998,61.494 177.998,57.592 Q177.998,53.735 180.728,50.917 Q183.416,48.187 187.36,48.187 z" fill="#CCFFCC"/>
            <path d="M193.862,50.917 Q191.131,48.187 187.36,48.187 Q183.416,48.187 180.728,50.917 Q177.998,53.735 177.998,57.592 Q177.998,61.494 180.728,64.181 Q183.416,66.955 187.36,66.955 Q191.131,66.955 193.862,64.181 Q196.636,61.494 196.636,57.592 Q196.636,53.735 193.862,50.917 M186.19,52.391 Q187.013,53.215 187.013,54.515 Q187.013,55.772 186.19,56.639 Q185.28,57.506 184.066,57.506 Q182.766,57.506 181.899,56.639 Q181.075,55.772 181.075,54.515 Q181.075,53.215 181.899,52.391 Q182.766,51.524 184.066,51.524 Q185.28,51.524 186.19,52.391 M188.357,58.849 Q188.357,59.24 188.01,59.456 Q187.75,59.803 187.36,59.803 Q186.97,59.803 186.623,59.456 Q186.363,59.24 186.363,58.849 Q186.363,58.459 186.623,58.113 Q186.97,57.809 187.36,57.809 Q187.75,57.809 188.01,58.113 Q188.357,58.459 188.357,58.849 z" fill="#000000"/>
            <path d="M188.01,59.456 Q188.357,59.24 188.357,58.849 Q188.357,58.459 188.01,58.113 Q187.75,57.809 187.36,57.809 Q186.97,57.809 186.623,58.113 Q186.363,58.459 186.363,58.849 Q186.363,59.24 186.623,59.456 Q186.97,59.803 187.36,59.803 Q187.75,59.803 188.01,59.456 M187.013,54.515 Q187.013,53.215 186.19,52.391 Q185.28,51.524 184.066,51.524 Q182.766,51.524 181.899,52.391 Q181.075,53.215 181.075,54.515 Q181.075,55.772 181.899,56.639 Q182.766,57.506 184.066,57.506 Q185.28,57.506 186.19,56.639 Q187.013,55.772 187.013,54.515 z" fill="#EBEBEB"/>
          </g>
        </g>
        <path d="M189.863,101.697 L189.863,101.697 C195.366,96.108 204.357,96.039 209.945,101.542 L234.407,125.631 C239.995,131.134 240.064,140.126 234.561,145.714 L234.561,145.714 C229.058,151.302 220.067,151.371 214.479,145.868 L190.017,121.779 C184.429,116.276 184.36,107.285 189.863,101.697 z" fill="#999999"/>
        <g>
          <path d="M214.558,139.062 C214.722,139.576 236.059,181.845 182.713,178.449 C182.713,178.449 136.661,248.666 109.351,173.546 C84.31,104.668 166.856,127.359 164.279,126.556 C164.279,126.556 199.819,92.731 214.558,139.062 z" fill="#DFA035"/>
          <path d="M167.76,154.905 C165.315,148.021 168.913,140.458 175.797,138.012 C182.681,135.567 190.244,139.165 192.689,146.049 C195.135,152.933 191.537,160.496 184.653,162.942 C177.768,165.387 170.205,161.789 167.76,154.905 z" fill="#85530F"/>
          <path d="M170.993,154.329 C169.147,149.131 171.864,143.42 177.062,141.574 C182.26,139.727 187.971,142.444 189.817,147.642 C191.664,152.84 188.947,158.551 183.749,160.398 C178.551,162.244 172.84,159.527 170.993,154.329 z" fill="#000000"/>
          <path d="M138.122,144.054 L151.824,182.625 C152.023,183.187 151.73,183.804 151.168,184.004 L148.115,185.088 C147.553,185.288 146.936,184.994 146.736,184.432 L133.034,145.861 C132.835,145.299 133.129,144.682 133.691,144.482 L136.743,143.398 C137.305,143.198 137.922,143.492 138.122,144.054 z" fill="#85530F"/>
          <path d="M192.257,154.51" fill="#85530F"/>
          <path d="M191.664,154.721 L285.267,119.56 L281.652,109.385 L187.183,141.034 L191.664,154.721 z" fill="#85530F"/>
          <path d="M319.177,101.032 L319.171,101.023 C319.051,100.684 320.918,105.941 318.769,109.569 C318.679,109.685 318.607,109.819 318.498,109.917 C317.324,110.982 315.854,111.642 314.415,112.263 C312.652,113.024 310.844,113.675 309.023,114.281 C309.669,115.09 309.434,114.684 309.787,115.466 C310.313,116.949 309.753,118.501 308.536,118.934 C307.318,119.366 305.904,118.515 305.377,117.032 C305.148,116.166 305.232,116.667 305.221,115.516 L303.009,116.188 C303.668,117.012 303.429,116.6 303.785,117.387 C304.312,118.87 303.752,120.423 302.534,120.856 C301.316,121.288 299.902,120.437 299.375,118.954 C299.238,118.434 299.031,117.838 299.226,117.297 C297.536,117.776 298.12,117.617 297.481,117.791 C297.782,118.167 297.622,117.929 297.899,118.543 L297.899,118.543 C298.426,120.026 297.866,121.578 296.648,122.011 C295.431,122.443 294.016,121.592 293.49,120.109 C293.287,119.344 293.344,119.744 293.337,118.906 C292.319,119.173 291.3,119.437 290.279,119.69 L285.267,119.56 L281.652,109.385 L284.442,106.484 C285.865,105.836 287.299,105.211 288.732,104.586 C288.041,104.288 287.692,103.612 287.399,102.963 C286.872,101.48 287.432,99.927 288.65,99.495 C289.867,99.062 291.281,99.914 291.808,101.397 L291.808,101.397 C292,101.986 292.106,102.642 291.89,103.24 C294.194,102.275 293.375,102.604 294.335,102.22 C293.555,101.901 293.145,101.216 292.815,100.486 C292.288,99.003 292.848,97.45 294.066,97.018 C295.283,96.585 296.698,97.437 297.224,98.92 C297.506,99.764 297.488,100.259 297.192,101.078 C299.257,100.252 298.305,100.615 300.042,99.975 C299.371,99.68 299.035,99.009 298.751,98.377 C298.224,96.894 298.784,95.342 300.001,94.909 C301.219,94.477 302.633,95.328 303.16,96.811 C303.398,97.481 303.424,98.147 303.183,98.817 C306.189,97.892 309.377,96.473 312.593,96.484 C315.446,96.688 318.165,98.267 319.177,101.032 z M306.914,100.165 C306.486,99.263 302.063,100.466 297.034,102.851 C292.004,105.236 288.274,107.901 288.702,108.802 C289.129,109.704 293.553,108.501 298.582,106.116 C303.611,103.731 307.342,101.067 306.914,100.165 z M310.698,110.843 C310.469,109.872 305.891,110.119 300.474,111.395 C295.056,112.671 290.849,114.493 291.078,115.465 C291.307,116.436 295.884,116.189 301.302,114.912 C306.72,113.636 310.926,111.814 310.698,110.843 z" fill="#B0953C"/>
          <path d="M282.454,110.733 L140.844,159.681" fill-opacity="0" stroke="#BEBEBE" stroke-width="1"/>
          <path d="M141.597,161.799 L283.109,112.577" fill-opacity="0" stroke="#BEBEBE" stroke-width="1"/>
          <path d="M142.477,164.277 L283.478,113.616" fill-opacity="0" stroke="#BEBEBE" stroke-width="1"/>
          <path d="M143.609,167.464 L284.321,115.99" fill-opacity="0" stroke="#BEBEBE" stroke-width="1"/>
          <path d="M144.726,170.608 L285.164,118.364" fill-opacity="0" stroke="#BEBEBE" stroke-width="1"/>
        </g>
        <g>
          <path d="M114.373,125.537 L114.373,125.537 C118.749,119.77 126.771,118.49 132.29,122.678 L154.972,139.891 C160.491,144.079 161.417,152.149 157.041,157.916 L157.041,157.916 C152.665,163.683 144.643,164.963 139.124,160.775 L116.442,143.563 C110.923,139.375 109.996,131.304 114.373,125.537 z" fill="#999999"/>
          <path d="M135.806,98.916 L135.806,98.916 C142.789,102.645 146.078,110.109 143.152,115.588 L131.128,138.107 C128.202,143.586 120.17,145.006 113.188,141.277 L113.188,141.277 C106.205,137.549 102.916,130.085 105.842,124.606 L117.866,102.086 C120.792,96.607 128.824,95.188 135.806,98.916 z" fill="#999999"/>
          <path d="M147.112,158.341 L151.066,162.49" fill-opacity="0" stroke="#7F7F7F" stroke-width="1"/>
          <path d="M153.042,154.192 L156.996,158.341" fill-opacity="0" stroke="#7F7F7F" stroke-width="1"/>
        </g>
        <g>
          <path d="M223.261,126.191 L223.261,126.191 C228.58,121.803 236.449,122.559 240.836,127.878 L246.206,134.388 C250.593,139.707 249.838,147.575 244.519,151.962 L244.519,151.962 C239.2,156.35 231.331,155.594 226.944,150.275 L221.574,143.765 C217.187,138.446 217.943,130.578 223.261,126.191 z" fill="#999999"/>
          <path d="M223.261,126.191 L223.261,126.191 C228.58,121.803 236.449,122.559 240.836,127.878 L246.206,134.388 C250.593,139.707 249.838,147.575 244.519,151.962 L244.519,151.962 C239.2,156.35 231.331,155.594 226.944,150.275 L221.574,143.765 C217.187,138.446 217.943,130.578 223.261,126.191 z" fill-opacity="0" stroke="#787878" stroke-width="0.5"/>
        </g>
        <path d="M221.799,127.975 L225.752,132.124" fill-opacity="0" stroke="#7F7F7F" stroke-width="1"/>
        <path d="M227.729,123.826 L231.682,127.975" fill-opacity="0" stroke="#7F7F7F" stroke-width="1"/>
        <g>
          <g>
            <path d="M111.397,162.213 C122.712,156.443 132.764,172.843 135.906,178.787 L152.911,215.58 C156.053,221.524 155.725,226.633 148.667,230.364 L148.667,230.364 C141.608,234.096 136.615,231.328 133.473,225.385 L113.567,190.397 C113.567,190.397 100.814,167.609 111.397,162.213 z" fill="#999999"/>
            <path d="M111.397,162.213 C122.712,156.443 132.764,172.843 135.906,178.787 L152.911,215.58 C156.053,221.524 155.725,226.633 148.667,230.364 L148.667,230.364 C141.608,234.096 136.615,231.328 133.473,225.385 L113.567,190.397 C113.567,190.397 100.814,167.609 111.397,162.213 z" fill-opacity="0" stroke="#7E7E7E" stroke-width="1"/>
          </g>
          <path d="M121.713,181.157 C119.441,182.358 116.384,181.035 114.886,178.201 C113.388,175.367 114.016,172.096 116.289,170.895 C118.561,169.693 121.618,171.017 123.116,173.851 C124.614,176.684 123.986,179.955 121.713,181.157 z" fill="#FF9999"/>
          <path d="M113.586,169.281 C112.667,169.865 111.292,169.345 110.514,168.12 C109.736,166.896 109.85,165.43 110.768,164.846 C111.687,164.263 113.062,164.782 113.84,166.007 C114.618,167.232 114.504,168.697 113.586,169.281 z" fill="#FF9999"/>
          <path d="M118.399,168.343 C117.366,168.684 116.16,167.843 115.705,166.465 C115.251,165.087 115.721,163.694 116.754,163.353 C117.788,163.012 118.994,163.853 119.448,165.231 C119.902,166.609 119.433,168.003 118.399,168.343 z" fill="#FF9999"/>
          <path d="M123.125,168.175 C122.445,168.342 121.713,167.743 121.49,166.836 C121.266,165.929 121.637,165.058 122.317,164.891 C122.997,164.724 123.729,165.323 123.952,166.23 C124.175,167.137 123.805,168.007 123.125,168.175 z" fill="#FF9999"/>
          <path d="M111.232,173.923 C110.779,174.457 109.834,174.4 109.122,173.796 C108.41,173.192 108.2,172.269 108.654,171.735 C109.107,171.201 110.051,171.258 110.763,171.862 C111.475,172.467 111.685,173.389 111.232,173.923 z" fill="#FF9999"/>
        </g>
        <g>
          <g>
            <path d="M221.337,161.513 C232.48,167.606 224.601,185.154 221.463,191.1 L200.658,225.886 C197.52,231.832 193.115,234.441 186.054,230.714 L186.054,230.714 C178.994,226.988 178.465,221.304 181.603,215.358 L199.279,179.193 C199.279,179.193 210.914,155.813 221.337,161.513 z" fill="#999999"/>
            <path d="M221.337,161.513 C232.48,167.606 224.601,185.154 221.463,191.1 L200.658,225.886 C197.52,231.832 193.115,234.441 186.054,230.714 L186.054,230.714 C178.994,226.988 178.465,221.304 181.603,215.358 L199.279,179.193 C199.279,179.193 210.914,155.813 221.337,161.513 z" fill-opacity="0" stroke="#7E7E7E" stroke-width="1"/>
          </g>
          <path d="M210.873,180.907 C208.6,179.707 207.97,176.437 209.466,173.602 C210.962,170.767 214.018,169.442 216.291,170.642 C218.565,171.842 219.195,175.113 217.699,177.947 C216.203,180.782 213.147,182.107 210.873,180.907 z" fill="#FF9999"/>
          <path d="M216.101,167.5 C215.101,167.07 214.755,165.641 215.328,164.308 C215.901,162.975 217.176,162.243 218.175,162.673 C219.175,163.102 219.521,164.531 218.948,165.864 C218.375,167.197 217.101,167.93 216.101,167.5 z" fill="#FF9999"/>
          <path d="M219.589,170.947 C218.725,170.285 218.739,168.815 219.622,167.663 C220.504,166.511 221.919,166.114 222.783,166.775 C223.647,167.437 223.632,168.907 222.75,170.059 C221.868,171.211 220.453,171.608 219.589,170.947 z" fill="#FF9999"/>
          <path d="M222.392,174.755 C221.87,174.288 221.953,173.345 222.576,172.65 C223.199,171.954 224.127,171.769 224.649,172.237 C225.17,172.704 225.088,173.647 224.465,174.342 C223.841,175.038 222.913,175.223 222.392,174.755 z" fill="#FF9999"/>
          <path d="M210.939,168.173 C210.243,168.099 209.757,167.287 209.855,166.358 C209.953,165.429 210.597,164.736 211.293,164.809 C211.99,164.883 212.475,165.695 212.378,166.624 C212.28,167.552 211.636,168.246 210.939,168.173 z" fill="#FF9999"/>
        </g>
      </g>
    </g>
  </g>
</svg>
