<?xml version="1.0" encoding="UTF-8"?>
<!DOCTYPE svg PUBLIC "-//W3C//DTD SVG 1.1//EN" "http://www.w3.org/Graphics/SVG/1.1/DTD/svg11.dtd">
<svg version="1.1" xmlns="http://www.w3.org/2000/svg" xmlns:xlink="http://www.w3.org/1999/xlink" x="0" y="0" width="1024" height="768" viewBox="0, 0, 1024, 768">
  <g id="Layer_1">
    <path d="M505,144 C389.63,144 296.5,237.593 296.5,352.5 C296.5,467.407 389.63,561 505,561 C619.907,561 713.5,467.87 713.5,352.5 C713.5,237.593 619.907,144 505,144 z M505,533.2 C405.383,533.2 324.3,452.117 324.3,352.5 C324.3,252.883 405.383,171.8 505,171.8 C604.617,171.8 685.7,252.883 685.7,352.5 C685.7,452.117 604.617,533.2 505,533.2 z M560.137,347.867 C557.357,347.867 555.503,349.72 555.503,352.5 C555.503,381.227 532.337,404.857 503.147,404.857 C473.957,404.857 450.79,381.69 450.79,352.5 C450.79,349.72 448.937,347.867 446.157,347.867 C443.377,347.867 441.523,349.72 441.523,352.5 C441.523,386.323 468.86,414.123 503.147,414.123 C537.433,414.123 564.77,386.323 564.77,352.5 C564.77,349.72 562.453,347.867 560.137,347.867 z M415.113,306.167 C401.213,306.167 389.63,317.75 389.63,331.65 C389.63,334.43 391.483,336.283 394.263,336.283 C397.043,336.283 398.897,334.43 398.897,331.65 C398.897,322.847 406.31,315.433 415.113,315.433 C423.917,315.433 431.33,322.847 431.33,331.65 C431.33,334.43 433.183,336.283 435.963,336.283 C438.743,336.283 440.597,334.43 440.597,331.65 C440.597,317.75 429.013,306.167 415.113,306.167 z M592.107,306.167 C578.207,306.167 566.623,317.75 566.623,331.65 C566.623,334.43 568.477,336.283 571.257,336.283 C574.037,336.283 575.89,334.43 575.89,331.65 C575.89,322.847 583.303,315.433 592.107,315.433 C600.91,315.433 608.323,322.847 608.323,331.65 C608.323,334.43 610.177,336.283 612.957,336.283 C615.737,336.283 617.59,334.43 617.59,331.65 C617.59,317.75 606.007,306.167 592.107,306.167 z M396.117,365.01 C393.8,365.01 391.947,366.863 391.947,369.18 C391.947,371.497 393.8,373.35 396.117,373.35 C398.433,373.35 400.287,371.497 400.287,369.18 C400.287,366.863 398.433,365.01 396.117,365.01 z M413.723,365.01 C411.407,365.01 409.553,366.863 409.553,369.18 C409.553,371.497 411.407,373.35 413.723,373.35 C416.04,373.35 417.893,371.497 417.893,369.18 C417.893,366.863 416.04,365.01 413.723,365.01 z M404.92,377.983 C402.603,377.983 400.75,379.837 400.75,382.153 C400.75,384.47 402.603,386.323 404.92,386.323 C407.237,386.323 409.09,384.47 409.09,382.153 C409.09,379.837 407.7,377.983 404.92,377.983 z M388.703,377.983 C386.387,377.983 384.533,379.837 384.533,382.153 C384.533,384.47 386.387,386.323 388.703,386.323 C391.02,386.323 392.873,384.47 392.873,382.153 C392.873,379.837 391.483,377.983 388.703,377.983 z M420.673,377.983 C418.357,378.447 416.503,380.3 416.967,382.617 C417.43,384.933 419.283,386.787 421.6,386.323 C423.917,385.86 425.77,384.007 425.307,381.69 C425.307,379.373 422.99,377.52 420.673,377.983 z M404.92,360.84 C407.237,360.84 409.09,358.987 409.09,356.67 C409.09,354.353 407.237,352.5 404.92,352.5 C402.603,352.5 400.75,354.353 400.75,356.67 C400.75,358.987 402.603,360.84 404.92,360.84 z M388.703,360.84 C391.02,360.84 392.873,358.987 392.873,356.67 C392.873,354.353 391.02,352.5 388.703,352.5 C386.387,352.5 384.533,353.89 384.533,356.67 C384.533,358.987 386.387,360.84 388.703,360.84 z M421.137,352.037 C418.82,352.037 416.967,353.89 416.967,356.207 C416.967,358.523 418.82,360.377 421.137,360.377 C423.453,360.377 425.307,358.523 425.307,356.207 C425.77,353.89 423.453,352.037 421.137,352.037 z M586.083,365.01 C583.767,365.01 581.913,366.863 581.913,369.18 C581.913,371.497 583.767,373.35 586.083,373.35 C588.4,373.35 590.253,371.497 590.253,369.18 C590.253,366.863 588.863,365.01 586.083,365.01 z M603.69,365.01 C601.373,365.01 599.52,366.863 599.52,369.18 C599.52,371.497 601.373,373.35 603.69,373.35 C606.007,373.35 607.86,371.497 607.86,369.18 C607.86,366.863 606.007,365.01 603.69,365.01 z M595.35,377.983 C593.033,377.983 591.18,379.837 591.18,382.153 C591.18,384.47 593.033,386.323 595.35,386.323 C597.667,386.323 599.52,384.47 599.52,382.153 C599.52,379.837 597.667,377.983 595.35,377.983 z M579.133,377.983 C576.817,377.983 574.963,379.837 574.963,382.153 C574.963,384.47 576.817,386.323 579.133,386.323 C581.45,386.323 583.303,384.47 583.303,382.153 C583.303,379.837 581.45,377.983 579.133,377.983 z M611.567,377.983 C609.25,377.983 607.397,379.837 607.397,382.153 C607.397,384.47 609.25,386.323 611.567,386.323 C613.883,386.323 615.737,384.47 615.737,382.153 C615.737,379.837 613.883,377.983 611.567,377.983 z M595.35,360.84 C597.667,360.84 599.52,358.987 599.52,356.67 C599.52,354.353 597.667,352.5 595.35,352.5 C593.033,352.5 591.18,354.353 591.18,356.67 C591.18,358.987 593.033,360.84 595.35,360.84 z M579.133,360.84 C581.45,360.84 583.303,358.987 583.303,356.67 C583.303,354.353 581.45,352.5 579.133,352.5 C576.817,352.5 574.963,354.353 574.963,356.67 C574.963,358.987 576.817,360.84 579.133,360.84 z M611.567,352.037 C609.25,352.037 607.397,353.89 607.397,356.207 C607.397,358.523 609.25,360.377 611.567,360.377 C613.883,360.377 615.737,358.523 615.737,356.207 C615.737,353.89 613.883,352.037 611.567,352.037 z" fill="#FFFFFF"/>
  </g>
</svg>
