<?xml version="1.0" encoding="UTF-8"?>
<!DOCTYPE svg PUBLIC "-//W3C//DTD SVG 1.1//EN" "http://www.w3.org/Graphics/SVG/1.1/DTD/svg11.dtd">
<svg version="1.1" xmlns="http://www.w3.org/2000/svg" xmlns:xlink="http://www.w3.org/1999/xlink" x="0" y="0" width="1024" height="768" viewBox="0, 0, 1024, 768">
  <g id="Layer_1">
    <path d="M512,203 C427.129,203 358,272.129 358,357 C358,441.871 426.787,511 512,511 C596.871,511 666,442.213 666,357 C666,272.129 596.871,203 512,203 z M512,490.467 C438.422,490.467 378.533,430.578 378.533,357 C378.533,283.422 438.422,223.533 512,223.533 C585.578,223.533 645.467,283.422 645.467,357 C645.467,430.578 585.578,490.467 512,490.467 z M462.378,321.751 C461.009,320.382 458.956,320.382 457.587,321.751 L444.924,334.413 L432.262,321.751 C430.893,320.382 428.84,320.382 427.471,321.751 C426.102,323.12 426.102,325.173 427.471,326.542 L440.133,339.204 L427.471,351.867 C426.102,353.236 426.102,355.289 427.471,356.658 C428.156,357.342 429.182,357.684 429.867,357.684 C430.551,357.684 431.578,357.342 432.262,356.658 L444.924,343.996 L457.587,356.658 C458.271,357.342 459.298,357.684 459.982,357.684 C460.667,357.684 461.693,357.342 462.378,356.658 C463.747,355.289 463.747,353.236 462.378,351.867 L449.716,339.204 L462.378,326.542 C463.747,325.516 463.747,323.12 462.378,321.751 z M595.844,321.751 C594.476,320.382 592.422,320.382 591.053,321.751 L578.391,334.413 L565.729,321.751 C564.36,320.382 562.307,320.382 560.938,321.751 C559.569,323.12 559.569,325.173 560.938,326.542 L573.6,339.204 L560.938,351.867 C559.569,353.236 559.569,355.289 560.938,356.658 C561.622,357.342 562.649,357.684 563.333,357.684 C564.018,357.684 565.044,357.342 565.729,356.658 L578.391,343.996 L591.053,356.658 C591.738,357.342 592.764,357.684 593.449,357.684 C594.133,357.684 595.16,357.342 595.844,356.658 C597.213,355.289 597.213,353.236 595.844,351.867 L583.182,339.204 L595.844,326.542 C597.213,325.516 597.213,323.12 595.844,321.751 z M550.329,353.578 L473.671,353.578 C471.618,353.578 470.249,354.947 470.249,357 C470.249,359.053 471.618,360.422 473.671,360.422 L550.671,360.422 C552.724,360.422 554.093,359.053 554.093,357 C554.093,354.947 552.382,353.578 550.329,353.578 z" fill="#FFFFFF"/>
  </g>
</svg>
