<?xml version="1.0" encoding="UTF-8"?>
<!DOCTYPE svg PUBLIC "-//W3C//DTD SVG 1.1//EN" "http://www.w3.org/Graphics/SVG/1.1/DTD/svg11.dtd">
<svg version="1.1" xmlns="http://www.w3.org/2000/svg" xmlns:xlink="http://www.w3.org/1999/xlink" x="0" y="0" width="1024" height="768" viewBox="0, 0, 1024, 768">
  <g id="Layer_1">
    <path d="M548.049,364 L464.92,364 C462.693,364 461.209,365.856 461.209,368.082 C463.064,391.462 482.733,409.647 506.484,409.647 C530.236,409.647 549.904,391.462 551.76,368.082 C551.76,365.856 550.276,364 548.049,364 z M505,197 C412.964,197 338,271.964 338,364 C338,456.036 412.593,531 505,531 C597.407,531 672,456.407 672,364 C672,271.964 597.036,197 505,197 z M505,508.733 C425.211,508.733 360.267,443.789 360.267,364 C360.267,284.211 425.211,219.267 505,219.267 C584.789,219.267 649.733,284.211 649.733,364 C649.733,443.789 584.789,508.733 505,508.733 z M432.633,310.189 C421.5,310.189 412.222,319.467 412.222,330.6 C412.222,341.733 421.5,351.011 432.633,351.011 C443.767,351.011 453.044,341.733 453.044,330.6 C453.044,319.467 443.767,310.189 432.633,310.189 z M432.633,343.589 C425.582,343.589 419.644,337.651 419.644,330.6 C419.644,323.549 425.582,317.611 432.633,317.611 C439.684,317.611 445.622,323.549 445.622,330.6 C445.622,337.651 439.684,343.589 432.633,343.589 z M574.027,310.189 C562.893,310.189 553.616,319.467 553.616,330.6 C553.616,341.733 562.893,351.011 574.027,351.011 C585.16,351.011 594.438,341.733 594.438,330.6 C594.438,319.467 585.531,310.189 574.027,310.189 z M574.027,343.589 C566.976,343.589 561.038,337.651 561.038,330.6 C561.038,323.549 566.976,317.611 574.027,317.611 C581.078,317.611 587.016,323.549 587.016,330.6 C587.016,337.651 581.449,343.589 574.027,343.589 z" fill="#FFFFFF"/>
  </g>
</svg>
