<?xml version="1.0" encoding="UTF-8"?>
<!DOCTYPE svg PUBLIC "-//W3C//DTD SVG 1.1//EN" "http://www.w3.org/Graphics/SVG/1.1/DTD/svg11.dtd">
<svg version="1.1" xmlns="http://www.w3.org/2000/svg" xmlns:xlink="http://www.w3.org/1999/xlink" x="0" y="0" width="1024" height="768" viewBox="0, 0, 1024, 768">
  <g id="Layer_1">
    <path d="M527,178 C421.738,178 336,263.738 336,369 C336,474.262 421.313,560 527,560 C632.262,560 718,474.687 718,369 C718,263.738 632.262,178 527,178 z M527,534.533 C435.744,534.533 361.467,460.256 361.467,369 C361.467,277.744 435.744,203.467 527,203.467 C618.256,203.467 692.533,277.744 692.533,369 C692.533,460.256 618.256,534.533 527,534.533 z M574.538,369 L479.462,369 C476.916,369 475.218,371.122 475.218,373.669 C477.34,400.409 499.836,421.207 527,421.207 C554.164,421.207 576.66,400.409 578.782,373.669 C579.207,371.122 577.084,369 574.538,369 z M442.111,315.096 L437.442,319.764 L432.773,315.096 C427.256,309.578 418.342,309.578 412.824,315.096 C407.307,320.613 407.307,329.527 412.824,335.044 L417.493,339.713 L437.442,359.662 L462.06,335.044 C467.578,329.527 467.578,320.613 462.06,315.096 C456.542,309.578 447.629,309.578 442.111,315.096 z M612.313,315.096 L607.644,319.764 L602.976,315.096 C597.458,309.578 588.544,309.578 583.027,315.096 C577.509,320.613 577.509,329.527 583.027,335.044 L607.644,359.662 L632.262,335.044 C637.78,329.527 637.78,320.613 632.262,315.096 C626.744,309.578 617.831,309.578 612.313,315.096 z" fill="#FFFFFF"/>
  </g>
</svg>
