<svg xmlns="http://www.w3.org/2000/svg" xmlns:xlink="http://www.w3.org/1999/xlink" version="1.1" x="0px" y="0px" viewBox="0 0 100 125" style="enable-background:new 0 0 100 100;" xml:space="preserve"><path d="M50,5C25.2,5,5,25.2,5,50c0,24.8,20.1,45,45,45c24.8,0,45-20.1,45-45C95,25.2,74.8,5,50,5z M50,89c-21.5,0-39-17.5-39-39  s17.5-39,39-39s39,17.5,39,39S71.5,89,50,89z M35.5,39.7c-0.4-0.4-1-0.4-1.4,0l-3.7,3.7l-3.7-3.7c-0.4-0.4-1-0.4-1.4,0s-0.4,1,0,1.4  l3.7,3.7l-3.7,3.7c-0.4,0.4-0.4,1,0,1.4c0.2,0.2,0.5,0.3,0.7,0.3s0.5-0.1,0.7-0.3l3.7-3.7l3.7,3.7c0.2,0.2,0.5,0.3,0.7,0.3  s0.5-0.1,0.7-0.3c0.4-0.4,0.4-1,0-1.4l-3.7-3.7l3.7-3.7C35.9,40.8,35.9,40.1,35.5,39.7z M74.5,39.7c-0.4-0.4-1-0.4-1.4,0l-3.7,3.7  l-3.7-3.7c-0.4-0.4-1-0.4-1.4,0s-0.4,1,0,1.4l3.7,3.7l-3.7,3.7c-0.4,0.4-0.4,1,0,1.4c0.2,0.2,0.5,0.3,0.7,0.3s0.5-0.1,0.7-0.3  l3.7-3.7l3.7,3.7c0.2,0.2,0.5,0.3,0.7,0.3s0.5-0.1,0.7-0.3c0.4-0.4,0.4-1,0-1.4l-3.7-3.7l3.7-3.7C74.9,40.8,74.9,40.1,74.5,39.7z   M61.2,49H38.8c-0.6,0-1,0.4-1,1s0.4,1,1,1h22.5c0.6,0,1-0.4,1-1S61.8,49,61.2,49z"/><text x="0" y="115" fill="#000000" font-size="5px" font-weight="bold" font-family="'Helvetica Neue', Helvetica, Arial-Unicode, Arial, Sans-serif">Created by No More Heroes</text><text x="0" y="120" fill="#000000" font-size="5px" font-weight="bold" font-family="'Helvetica Neue', Helvetica, Arial-Unicode, Arial, Sans-serif">from the Noun Project</text></svg>