<?xml version="1.0" encoding="UTF-8"?>
<!DOCTYPE svg PUBLIC "-//W3C//DTD SVG 1.1//EN" "http://www.w3.org/Graphics/SVG/1.1/DTD/svg11.dtd">
<svg version="1.1" xmlns="http://www.w3.org/2000/svg" xmlns:xlink="http://www.w3.org/1999/xlink" x="0" y="0" width="1024" height="768" viewBox="0, 0, 1024, 768">
  <g id="Layer_1">
    <path d="M526,155 C409.44,155 314.5,249.94 314.5,366.5 C314.5,483.06 408.97,578 526,578 C643.03,578 737.5,483.53 737.5,366.5 C737.5,249.94 642.56,155 526,155 z M526,549.8 C424.95,549.8 342.7,467.55 342.7,366.5 C342.7,265.45 424.95,183.2 526,183.2 C627.05,183.2 709.3,265.45 709.3,366.5 C709.3,467.55 627.05,549.8 526,549.8 z M455.5,319.5 L413.2,319.5 C413.2,319.5 413.2,319.5 413.2,319.5 C413.2,319.5 413.2,319.5 413.2,319.5 C407.56,319.5 403.33,324.2 403.33,329.37 C403.33,335.01 408.03,339.24 413.2,339.24 C418.37,339.24 423.07,334.54 423.07,329.37 C423.07,329.37 423.07,328.9 423.07,328.9 L455.5,328.9 C458.32,328.9 460.2,327.02 460.2,324.2 C460.2,321.38 457.85,319.5 455.5,319.5 z M634.57,319.5 L592.27,319.5 C592.27,319.5 592.27,319.5 592.27,319.5 C587.1,319.5 582.4,324.2 582.4,329.37 C582.4,335.01 587.1,339.24 592.27,339.24 C597.91,339.24 602.14,334.54 602.14,329.37 C602.14,329.37 602.14,328.9 602.14,328.9 L634.57,328.9 C637.39,328.9 639.27,327.02 639.27,324.2 C639.27,321.38 637.39,319.5 634.57,319.5 z M578.64,361.8 L473.36,361.8 C470.54,361.8 468.66,363.68 468.66,366.5 C468.66,369.32 470.54,371.2 473.36,371.2 L579.11,371.2 C581.93,371.2 583.81,369.32 583.81,366.5 C583.81,363.68 581.46,361.8 578.64,361.8 z" fill="#FFFFFF"/>
  </g>
</svg>
