<?xml version="1.0" encoding="UTF-8"?>
<!DOCTYPE svg PUBLIC "-//W3C//DTD SVG 1.1//EN" "http://www.w3.org/Graphics/SVG/1.1/DTD/svg11.dtd">
<svg version="1.1" xmlns="http://www.w3.org/2000/svg" xmlns:xlink="http://www.w3.org/1999/xlink" x="0" y="0" width="1024" height="768" viewBox="0, 0, 1024, 768">
  <g id="Layer_1">
    <path d="M512,194.5 C412.677,194.5 332.5,275.076 332.5,374 C332.5,472.924 412.677,553.5 512,553.5 C610.924,553.5 691.5,473.323 691.5,374 C691.5,275.076 610.924,194.5 512,194.5 z M512,529.567 C426.239,529.567 356.433,459.761 356.433,374 C356.433,288.239 426.239,218.433 512,218.433 C597.761,218.433 667.567,288.239 667.567,374 C667.567,459.761 597.761,529.567 512,529.567 z M452.167,334.111 C449.773,334.111 448.178,335.707 448.178,338.1 C448.178,345.679 441.796,352.061 434.217,352.061 C426.638,352.061 420.256,345.679 420.256,338.1 C420.256,335.707 418.66,334.111 416.267,334.111 C413.873,334.111 412.278,335.707 412.278,338.1 C412.278,350.067 422.25,360.039 434.217,360.039 C446.183,360.039 456.156,350.067 456.156,338.1 C456.156,335.707 454.161,334.111 452.167,334.111 z M604.143,334.111 C601.75,334.111 600.154,335.707 600.154,338.1 C600.154,345.679 593.772,352.061 586.193,352.061 C578.614,352.061 572.232,345.679 572.232,338.1 C572.232,335.707 570.637,334.111 568.243,334.111 C565.85,334.111 564.254,335.707 564.254,338.1 C564.254,350.067 574.227,360.039 586.193,360.039 C598.16,360.039 608.132,350.067 608.132,338.1 C608.132,335.707 606.537,334.111 604.143,334.111 z M556.676,374 L530.748,374 L530.748,383.174 C530.748,387.163 527.557,390.354 523.568,390.354 C519.579,390.354 516.388,387.163 516.388,383.174 L516.388,374 L506.017,374 L506.017,383.174 C506.017,387.163 502.826,390.354 498.837,390.354 C494.848,390.354 491.657,387.163 491.657,383.174 L491.657,374 L466.128,374 C463.734,374 462.139,375.994 462.139,378.388 C464.133,403.518 485.274,423.063 510.803,423.063 C536.332,423.063 557.473,403.518 559.468,378.388 C561.063,375.994 559.069,374 556.676,374 z" fill="#FFFFFF"/>
  </g>
</svg>
